HIERARCHY
ROOT Hips
{
     OFFSET 1.88212 96.90440 -13.34250
     CHANNELS 6 Xposition Yposition Zposition Zrotation Xrotation Yrotation
     JOINT Spine
     {
          OFFSET 0.00000 11.89050 0.00000
          CHANNELS 3 Zrotation Xrotation Yrotation
          JOINT Spine1
          {
               OFFSET -0.00000 25.65740 0.12766
               CHANNELS 3 Zrotation Xrotation Yrotation
               JOINT HEad
               {
                    OFFSET 0.00000 8.73416 0.01134
                    CHANNELS 3 Zrotation Xrotation Yrotation
                    End Site
                    {
                         OFFSET -0.29000 12.77420 2.51395
                    }
               }
               JOINT LeftShoulder1
               {
                    OFFSET 8.99000 -0.36225 -0.22000
                    CHANNELS 3 Zrotation Xrotation Yrotation
                    JOINT LeftArm
                    {
                         OFFSET 10.28270 -0.00338 0.32212
                         CHANNELS 3 Zrotation Xrotation Yrotation
                         JOINT LeftForeArm
                         {
                              OFFSET 32.76690 0.09914 -1.42434
                              CHANNELS 3 Zrotation Xrotation Yrotation
                              JOINT LeftHand
                              {
                                   OFFSET 27.56430 0.08536 1.02216
                                   CHANNELS 3 Zrotation Xrotation Yrotation
                                   End Site
                                   {
                                        OFFSET 16.74430 -0.60000 1.50291
                                   }
                              }
                         }
                    }
               }
               JOINT RightShoulder
               {
                    OFFSET -8.99000 -0.36225 -0.22000
                    CHANNELS 3 Zrotation Xrotation Yrotation
                    JOINT RightArm
                    {
                         OFFSET -10.28270 -0.00338 0.32212
                         CHANNELS 3 Zrotation Xrotation Yrotation
                         JOINT RightForeArm
                         {
                              OFFSET -32.89710 0.09914 -1.42434
                              CHANNELS 3 Zrotation Xrotation Yrotation
                              JOINT RightHand
                              {
                                   OFFSET -27.49210 0.08536 1.02216
                                   CHANNELS 3 Zrotation Xrotation Yrotation
                                   End Site
                                   {
                                        OFFSET -16.63120 -0.60000 1.50291
                                   }
                              }
                         }
                    }
               }
          }
     }
     JOINT LeftUpLeg
     {
          OFFSET 8.94580 -8.66707 0.10165
          CHANNELS 3 Zrotation Xrotation Yrotation
          JOINT LeftLeg
          {
               OFFSET 0.00000 -44.42270 1.37270
               CHANNELS 3 Zrotation Xrotation Yrotation
               JOINT LeftFoot
               {
                    OFFSET -0.25355 -42.09240 -1.46059
                    CHANNELS 3 Zrotation Xrotation Yrotation
                    JOINT LeftToes
                    {
                         OFFSET -0.04000 -4.41509 8.49910
                         CHANNELS 3 Zrotation Xrotation Yrotation
                         End Site
                         {
                              OFFSET 0.08000 -0.04745 9.77979
                         }
                    }
               }
          }
     }
     JOINT RightUpLeg
     {
          OFFSET -8.94580 -8.66707 0.10165
          CHANNELS 3 Zrotation Xrotation Yrotation
          JOINT RightLeg
          {
               OFFSET 0.00000 -44.42270 1.37270
               CHANNELS 3 Zrotation Xrotation Yrotation
               JOINT RightFoot
               {
                    OFFSET 0.25355 -42.09240 -1.46059
                    CHANNELS 3 Zrotation Xrotation Yrotation
                    JOINT RightToes
                    {
                         OFFSET 0.04000 -4.41509 8.49910
                         CHANNELS 3 Zrotation Xrotation Yrotation
                         End Site
                         {
                              OFFSET -0.08000 -0.13745 9.77979
                         }
                    }
               }
          }
     }
}
MOTION
Frames: 20
Frame Time: 0.01667
29.93805 91.19107 2.13266 5.53191 18.41752 -176.78294 3.20090 14.23830 3.89925 -0.01012 0.00173 -0.00636 13.97072 13.08240 -31.39928 5.46059 10.26734 0.76613 -88.84555 -14.13987 -90.69180 -38.87587 33.37728 -67.46463 12.61295 10.95741 -11.31531 13.98325 10.68042 0.80104 94.25449 -29.40343 83.63072 11.27428 25.77100 81.18173 17.90792 17.77893 10.52636 9.92107 -5.79005 -7.41793 -28.04406 6.27766 74.49333 6.61752 0.00046 0.00249 1.15950 -10.75295 -88.96861 -28.78332 -0.49560 -13.12373 49.78887 64.83894 -31.23866 50.10235 -0.44062 0.25916 -70.81570 39.77137 29.02858 
30.07886 91.22359 2.40749 6.24387 20.03272 -174.86560 4.44086 16.13517 2.34848 -0.01157 -0.00023 -0.00803 14.54341 12.97120 -32.33297 4.84988 9.40165 0.09773 -87.90756 -14.15246 -89.31292 -44.19227 31.21767 -69.06896 13.06324 13.25305 -13.35878 15.48999 9.78572 -0.41856 91.09465 -30.13707 81.51649 7.91962 24.26717 79.04568 16.95986 15.32692 15.38181 10.34349 -4.73710 -9.41499 -27.51108 6.69207 72.91030 6.38397 -0.00019 0.00163 1.36648 -10.18575 -87.15641 -24.87235 -0.32208 -19.25583 36.73209 69.83269 -14.41917 32.92981 0.75682 -0.79382 -52.39034 52.11398 24.77846 
30.24665 91.55249 2.47477 7.43840 23.07100 -171.88425 6.61963 18.73895 -0.56211 -0.00825 0.00263 -0.00951 15.35110 13.23791 -33.32759 4.38533 8.97070 -0.61035 -86.90478 -13.80372 -87.69131 -46.74860 30.20447 -70.28398 12.40913 17.64060 -9.22342 17.40975 9.21992 -1.73861 88.14734 -30.73420 79.68392 6.20908 23.40768 78.36314 16.73691 13.80516 17.67461 11.45526 -2.43724 -12.94987 -26.84717 7.02103 71.18525 5.99345 -0.00172 0.00236 1.56741 -9.63844 -85.21289 -20.93193 -0.09454 -26.47143 19.10069 75.92954 7.55415 27.90034 0.37899 -0.29414 -35.29050 49.22844 11.01451 
30.43039 92.12431 2.30972 8.41698 25.89591 -169.22229 8.47001 20.64490 -3.04853 -0.00348 0.00558 -0.01061 16.36321 13.86079 -34.37809 4.07436 8.91942 -1.25195 -85.91614 -13.06571 -85.88453 -47.57904 29.96366 -71.35539 26.04644 2.52209 -19.62738 19.68913 8.92942 -3.12529 85.29781 -31.40870 77.90607 5.50617 22.91112 78.57937 16.58194 12.80457 17.88210 12.69963 -0.16352 -16.16155 -26.07346 7.28798 69.38811 5.42452 -0.00377 0.00322 1.71973 -9.20169 -83.24938 -18.16728 -1.92694 -33.78202 -20.21487 81.66115 49.28683 17.33886 0.53328 -0.41016 -17.75569 50.74297 2.46594 
30.62174 92.83299 1.96044 9.21287 28.59024 -166.82413 9.99327 22.02169 -5.14123 0.00137 0.00859 -0.01156 17.54221 14.81382 -35.49158 3.93953 9.22470 -1.81013 -85.02464 -12.00256 -83.97842 -47.30435 30.19048 -72.37508 21.07120 13.65645 -13.59394 22.25311 8.89476 -4.59502 82.50520 -32.23782 76.08014 5.41887 22.65481 79.35233 16.66053 12.22656 17.61345 14.08344 2.16326 -19.13370 -25.21726 7.48165 67.59626 4.71006 -0.00503 0.00361 1.82791 -8.91885 -81.38736 -16.89760 -5.41685 -40.98431 -78.65645 80.49325 109.20756 9.74685 0.45350 -0.15075 -4.40841 48.16203 -4.96914 
30.80965 93.55159 1.51479 9.84034 31.21918 -164.66026 11.21892 23.00686 -6.85646 0.00566 0.01189 -0.01214 18.85049 16.06365 -36.68522 4.09011 9.88365 -2.22193 -84.34499 -10.87327 -82.16138 -46.55162 30.39438 -73.70158 23.86868 6.56112 -18.53576 25.04786 9.12201 -6.15843 79.76049 -33.26001 74.20277 5.71215 22.57168 80.45350 16.70641 11.80051 16.72354 15.59154 4.56293 -21.92405 -24.32161 7.56687 65.90104 3.94010 -0.00482 0.00320 1.91204 -8.79693 -79.70930 -17.33374 -10.07310 -48.00751 -107.89811 74.46706 138.39130 -0.82191 0.46054 0.00099 9.17745 46.39405 -9.31558 
30.98458 94.15442 1.06456 10.36710 35.79336 -162.18124 13.29924 25.42425 -9.27561 0.00979 0.01623 -0.01209 20.23798 17.54743 -37.96729 4.48785 10.88369 -2.56499 -83.89466 -9.71643 -80.47651 -45.54036 30.74547 -75.00378 20.37711 12.71507 -14.48438 28.00569 9.60013 -7.80808 77.10323 -34.46200 72.33441 6.22294 22.63592 81.71729 16.85307 11.46593 15.89725 18.00671 8.64482 -25.69061 -23.45089 7.48903 64.38159 3.21504 -0.00353 0.00217 2.00543 -8.83076 -78.26854 -18.93115 -13.31904 -54.77894 -119.50434 68.69702 148.83521 3.74202 -0.04681 -0.16161 -3.09599 32.65870 -5.95509 
31.13804 94.54836 0.63314 10.61099 39.94819 -159.96623 15.10248 27.27614 -11.21805 0.01308 0.02131 -0.01160 21.66393 19.20701 -39.34334 5.14307 12.19871 -2.85866 -83.68661 -8.68596 -78.97206 -44.50944 31.11595 -76.37038 21.89686 8.51307 -17.24644 31.05395 10.29658 -9.55202 74.59113 -35.78904 70.53964 6.83287 22.83066 83.00900 16.92317 11.18058 14.90016 20.49179 12.35226 -29.22234 -22.67381 7.24232 63.11295 2.61449 -0.00197 0.00086 2.14004 -9.01538 -77.07610 -22.41176 -17.00903 -61.14283 -126.03043 64.26904 152.46664 -13.99367 -0.02549 0.65020 11.47353 24.37871 -3.79079 
31.27206 94.66525 0.14906 10.58161 43.71935 -157.97311 16.61285 28.68363 -12.69168 0.01475 0.02590 -0.01157 23.10804 20.99841 -40.80422 5.90494 13.70096 -3.20187 -83.61107 -7.83781 -77.57501 -43.51201 31.61293 -77.58324 19.46397 11.88459 -14.56656 33.98611 11.07053 -11.39453 72.31812 -37.12008 68.79486 7.44664 23.12305 84.24310 16.94047 11.13677 14.18530 22.95711 15.70328 -32.52385 -22.05296 6.91192 62.13332 2.13674 -0.00124 -0.00029 2.33290 -9.37808 -76.10458 -27.69383 -20.56036 -66.82242 -130.57344 61.53128 154.75101 -4.50836 0.21649 -0.50724 -1.70316 17.72166 0.49932 
31.40097 94.53288 -0.49163 10.27111 47.13575 -156.14124 17.74745 29.72402 -13.72537 0.01380 0.02856 -0.01257 24.58752 22.90087 -42.32376 6.58404 15.18462 -3.65730 -83.50301 -7.31173 -76.16660 -42.64687 32.13458 -78.72227 20.32830 9.23439 -16.57209 36.51000 11.72885 -13.27435 70.36169 -38.33571 67.03507 8.01114 23.43977 85.36196 16.77024 11.43130 13.64738 25.34642 18.73803 -35.59269 -21.63364 6.62766 61.43027 1.71460 -0.00160 -0.00113 2.55455 -9.97953 -75.31719 -34.27467 -23.55713 -71.47327 -132.96332 61.66175 154.49593 -16.08364 -0.29242 0.81705 7.15771 13.68577 4.10914 
31.52495 94.26878 -1.31507 9.67817 50.22129 -154.40926 18.40989 30.44616 -14.35623 0.01141 0.02989 -0.01414 26.13039 24.90162 -43.86766 7.09605 16.54114 -4.23203 -83.33437 -7.08222 -74.72470 -41.90539 32.71770 -79.69907 18.77945 10.93734 -15.32098 38.50241 12.21473 -15.11295 68.73421 -39.37423 65.32971 8.50614 23.71126 86.34740 16.52952 11.88830 13.36699 27.64460 21.50123 -38.43040 -21.43659 6.48735 60.96487 1.28427 -0.00226 -0.00188 2.74825 -10.86268 -74.69589 -41.50917 -26.01847 -74.82233 -133.60048 64.96362 154.14232 -13.00396 0.08426 -0.24711 0.97239 11.00747 9.69128 
31.63720 93.99196 -2.28309 8.82590 52.99640 -152.73822 18.54354 30.88212 -14.62004 0.00908 0.03028 -0.01541 27.75651 26.98474 -45.40599 7.49190 17.76551 -4.84771 -83.15977 -7.10018 -73.31786 -41.31912 33.28417 -80.58063 19.13567 9.20242 -16.82993 40.03403 12.58840 -16.83420 67.39640 -40.24856 63.81916 8.92714 23.90087 87.20306 16.23312 12.32656 13.10272 29.85521 24.01693 -41.03691 -21.45706 6.53720 60.69694 0.81819 -0.00237 -0.00279 2.86181 -12.02436 -74.23994 -48.78893 -28.10917 -76.75740 -133.04108 70.65219 153.40927 -18.54877 -0.18751 0.60719 4.33739 9.79123 11.66360 
31.76711 93.83257 -3.47494 7.74063 55.48995 -151.07748 18.09538 31.03501 -14.56741 0.00584 0.02870 -0.01647 29.48234 29.13671 -46.91074 7.65244 18.68716 -5.45289 -82.88523 -7.29516 -71.85707 -40.84266 33.82574 -81.33576 18.22704 10.10242 -16.50268 41.01352 12.77886 -18.27561 66.28908 -40.96576 62.41914 9.29336 23.97658 87.96867 15.84219 12.84252 13.15146 32.04688 26.32220 -43.45249 -21.67109 6.78041 60.56006 0.27878 -0.00173 -0.00391 2.85378 -13.43558 -73.94605 -55.77095 -30.08784 -77.31705 -131.40985 78.16732 152.50049 -17.23641 0.03900 -0.08634 2.90484 9.49899 10.43563 
31.95187 93.91930 -4.99849 6.45876 57.74888 -149.38293 17.07476 30.88938 -14.27642 0.00335 0.02149 -0.02080 29.78507 30.73454 -47.46904 -0.50509 10.72552 -4.98604 -78.01402 -7.63746 -63.79565 -38.89452 34.93858 -83.20532 16.52185 7.73235 -12.60769 36.01948 4.42532 -12.66387 59.14651 -42.91601 49.80445 8.76283 24.35588 90.54302 16.49415 9.86644 9.19630 34.37859 28.48337 -45.78390 -22.02259 7.17844 60.47083 -0.39641 -0.00006 -0.00539 2.69141 -15.03931 -73.80315 -62.42979 -32.21994 -76.68260 21.71939 90.00000 0.00000 -16.23413 0.02216 -0.09894 4.20493 10.38983 9.05126 
32.16448 94.10630 -6.63895 5.01448 59.81498 -147.63676 15.58869 30.49242 -13.80769 0.00925 0.02339 -0.01818 28.90067 31.73125 -47.20255 0.12610 12.49212 -5.30879 -80.67878 -8.30817 -65.28581 -37.67493 35.92907 -83.82167 19.56589 10.62481 -28.13499 37.89006 5.51833 -14.53603 60.45140 -43.88525 57.08708 7.65080 24.90034 93.45246 11.44173 19.13633 17.33574 36.88257 30.48136 -48.08178 -22.45873 7.69972 60.41103 -1.17021 0.00236 -0.00662 2.40006 -16.73330 -73.79691 -68.67178 -34.61884 -74.98346 34.89725 83.53800 -13.37455 -11.52756 0.05904 -0.55865 5.45083 11.68099 7.37261 
32.36380 94.15276 -8.14702 3.43195 61.68057 -145.86684 13.76963 29.90661 -13.18641 0.01338 0.02814 -0.01485 26.94781 32.06691 -46.16045 0.94048 14.36884 -5.54511 -82.37390 -8.59843 -66.23997 -36.85843 36.61125 -83.81527 14.75023 7.39493 -14.03719 39.73517 6.79189 -16.00721 61.30127 -44.65069 61.40359 7.03616 25.54633 94.63185 15.00628 7.62669 7.04564 39.35682 32.21589 -50.23719 -22.98009 8.33141 60.43484 -1.90033 0.00391 -0.00667 2.04420 -18.42950 -73.91115 -74.18519 -37.21650 -72.19016 37.09871 73.72061 -17.02504 -5.69630 -0.02325 -0.72032 7.70772 12.87708 1.41520 
32.51692 93.87435 -9.32995 1.74553 63.28777 -144.15703 11.74740 29.18208 -12.39575 0.01608 0.03397 -0.01255 25.36921 32.57952 -45.17687 2.23818 16.58667 -5.51826 -83.50834 -8.49979 -67.04655 -36.37199 36.92970 -83.84793 16.77593 9.00895 -20.32430 41.80127 8.43193 -17.59110 62.01309 -45.18184 64.26398 6.75982 26.15792 95.06094 14.32302 11.88386 8.71026 41.44157 33.58702 -52.00558 -23.64276 9.05964 60.63248 -2.41253 0.00313 -0.00534 1.70542 -20.07656 -74.11931 -78.20036 -39.66965 -67.92471 35.82040 63.28457 -18.61191 0.86097 -0.10033 -0.77882 3.45271 30.78653 0.41801 
32.62850 93.25439 -10.12469 0.03557 64.57712 -142.64809 10.21047 29.46633 -11.96499 0.03686 0.13593 -0.03343 23.31836 32.15132 -43.31655 3.59405 17.92459 -4.92111 -84.23049 -8.07125 -67.77434 -35.98567 36.92465 -83.79066 14.25251 7.25910 -11.29275 43.82541 9.67671 -18.31852 62.60774 -45.51647 66.31385 6.63088 26.73358 95.05708 15.52879 5.68914 3.75088 42.83650 34.56873 -53.15213 -24.51017 9.84350 61.07814 -2.59610 0.00012 -0.00318 1.42778 -21.65497 -74.39646 -79.84477 -41.44980 -61.89262 36.89951 54.09406 -23.19192 0.77913 0.10177 -0.04616 6.31405 37.00456 -3.61363 
32.73767 92.45277 -10.68010 -1.57470 65.53934 -141.47961 9.53466 30.87785 -11.85638 0.05063 0.12643 -0.01897 20.77915 30.64305 -41.01986 4.56172 18.14297 -4.02229 -84.45188 -7.53457 -68.18317 -35.65711 36.66892 -83.98815 15.11993 8.55293 -14.90778 45.26413 10.20621 -18.21079 63.04924 -45.63877 67.56682 6.53532 27.23203 95.01061 15.07282 8.73180 5.44684 43.51797 35.21610 -53.62671 -25.60300 10.64425 61.77453 -2.49321 -0.00350 -0.00112 1.20250 -23.19636 -74.72549 -79.05534 -42.18860 -54.35743 42.64644 48.03465 -32.20251 0.59417 0.19093 -0.01933 4.10605 41.20617 -1.79724 
32.83554 91.60574 -11.02381 -2.93877 66.22855 -140.76549 9.72594 33.16469 -12.02075 0.05334 0.11403 -0.01024 17.94633 28.15581 -38.58508 5.01446 17.25840 -2.95976 -84.22813 -7.06122 -68.25000 -35.35573 36.22981 -84.43272 10.28811 10.72298 8.75522 45.92482 10.02030 -17.22937 63.38804 -45.58326 68.18312 6.42765 27.60884 94.89533 15.40538 5.70615 3.15239 43.61442 35.59056 -53.50595 -26.89871 11.47760 62.70781 -2.21266 -0.00631 0.00049 1.00616 -24.75508 -75.09221 -76.62817 -41.75478 -46.21963 51.56035 44.23967 -43.19598 -1.33383 0.09113 -0.04734 2.05879 38.82256 1.34614 
